HIERARCHY
ROOT Hips
{
	OFFSET 0.00 0.00 0.00
	CHANNELS 6 Xposition Yposition Zposition Yrotation Xrotation Zrotation
	JOINT Spine
	{
		OFFSET	0.0000	9.2263	1.5771
		CHANNELS 3 Xrotation Yrotation Zrotation
		JOINT Spine1
		{
			OFFSET	0.0000	16.2540	-0.1656
			CHANNELS 3 Xrotation Yrotation Zrotation
			JOINT Spine2
			{
				OFFSET	0.0000	13.6396	-1.2923
				CHANNELS 3 Xrotation Yrotation Zrotation
				JOINT Neck
				{
					OFFSET	0.0000	13.8774	-4.3542
					CHANNELS 3 Xrotation Yrotation Zrotation
					JOINT Neck1
					{
						OFFSET	0.0000	4.3400	0.9269
						CHANNELS 3 Xrotation Yrotation Zrotation
						JOINT Head
						{
							OFFSET	0.0000	4.0266	0.8585
							CHANNELS 3 Xrotation Yrotation Zrotation
							End Site
							{
								OFFSET 0.0000 23.0297 0.1231
							}
						}
					}
				}
				JOINT LeftShoulder
				{
					OFFSET	6.1442	10.1870	-3.7932
					CHANNELS 3 Zrotation Xrotation Yrotation
					JOINT LeftArm
					{
						OFFSET	12.3191	-1.1130	-1.7935
						CHANNELS 3 Zrotation Xrotation Yrotation
						JOINT LeftForeArm
						{
							OFFSET	27.6870	0.0000	0.0000
							CHANNELS 3 Xrotation Zrotation Yrotation
							JOINT LeftHand
							{
								OFFSET	27.8738	0.0000	0.0000
								CHANNELS 3 Zrotation Yrotation Xrotation
								JOINT LeftHandThumb1
								{
									OFFSET	2.3785	-1.0029	2.6209
									CHANNELS 3 Zrotation Xrotation Yrotation
									JOINT LeftHandThumb2
									{
										OFFSET	3.3624	-1.0029	2.8398
										CHANNELS 3 Zrotation Xrotation Yrotation
										JOINT LeftHandThumb3
										{
											OFFSET	4.5018	-1.3445	2.1783
											CHANNELS 3 Zrotation Xrotation Yrotation
											End Site
											{
												OFFSET 2.6000 -1.0000 1.0000
											}
										}
									}
								}
								JOINT LeftHandMiddle1
								{
									OFFSET	10.4639	0.6148	0.4298
									CHANNELS 3 Zrotation Xrotation Yrotation
									JOINT LeftHandMiddle2
									{
										OFFSET	5.7921	0.0000	0.0000
										CHANNELS 3 Zrotation Xrotation Yrotation
										JOINT LeftHandMiddle3
										{
											OFFSET	3.7132	0.0000	0.0000
											CHANNELS 3 Zrotation Xrotation Yrotation
											End Site
											{
												OFFSET 2.3000 0.0000 0.0000
											}
										}
									}
								}
								JOINT LeftHandIndex1
								{
									OFFSET	10.3945	0.6148	2.7055
									CHANNELS 3 Zrotation Xrotation Yrotation
									JOINT LeftHandIndex2
									{
										OFFSET	5.5493	0.0000	0.0000
										CHANNELS 3 Zrotation Xrotation Yrotation
										JOINT LeftHandIndex3
										{
											OFFSET	3.3911	0.0000	0.0000
											CHANNELS 3 Zrotation Xrotation Yrotation
											End Site
											{
												OFFSET 2.5000 0.0000 0.0000
											}
										}
									}
								}
								JOINT LeftHandRing1
								{
									OFFSET	10.3252	0.3211	-1.8755
									CHANNELS 3 Zrotation Xrotation Yrotation
									JOINT LeftHandRing2
									{
										OFFSET	5.4452	0.0000	0.0000
										CHANNELS 3 Zrotation Xrotation Yrotation
										JOINT LeftHandRing3
										{
											OFFSET	3.7132	0.0000	0.0000
											CHANNELS 3 Zrotation Xrotation Yrotation
											End Site
											{
												OFFSET 2.0000 0.0000 0.0000
											}
										}
									}
								}
								JOINT LeftHandPinky1
								{
									OFFSET	10.0130	-0.0783	-3.9671
									CHANNELS 3 Zrotation Xrotation Yrotation
									JOINT LeftHandPinky2
									{
										OFFSET	3.6763	0.0000	0.0000
										CHANNELS 3 Zrotation Xrotation Yrotation
										JOINT LeftHandPinky3
										{
											OFFSET	2.8113	0.0000	0.0000
											CHANNELS 3 Zrotation Xrotation Yrotation
											End Site
											{
												OFFSET 2.9000 0.0000 0.0000
											}
										}
									}
								}
							}
						}
					}
				}
				JOINT RightShoulder
				{
					OFFSET	-6.1402	10.1870	-3.7932
					CHANNELS 3 Zrotation Xrotation Yrotation
					JOINT RightArm
					{
						OFFSET	-12.3231	-1.1130	-1.7935
						CHANNELS 3 Zrotation Xrotation Yrotation
						JOINT RightForeArm
						{
							OFFSET	-27.6870	0.0000	0.0000
							CHANNELS 3 Xrotation Zrotation Yrotation
							JOINT RightHand
							{
								OFFSET	-27.8738	0.0000	0.0000
								CHANNELS 3 Zrotation Yrotation Xrotation
								JOINT RightHandThumb1
								{
									OFFSET	-2.5178	-0.9367	2.5137
									CHANNELS 3 Zrotation Xrotation Yrotation
									JOINT RightHandThumb2
									{
										OFFSET	-3.2638	-1.0870	2.9669
										CHANNELS 3 Zrotation Xrotation Yrotation
										JOINT RightHandThumb3
										{
											OFFSET	-4.4165	-1.3703	2.1350
											CHANNELS 3 Zrotation Xrotation Yrotation
											End Site
											{
												OFFSET -2.6000 -1.0000 1.0000
											}
										}
									}
								}
								JOINT RightHandIndex1
								{
									OFFSET	-10.4665	0.4896	2.7120
									CHANNELS 3 Zrotation Xrotation Yrotation
									JOINT RightHandIndex2
									{
										OFFSET	-5.3768	0.0000	0.0000
										CHANNELS 3 Zrotation Xrotation Yrotation
										JOINT RightHandIndex3
										{
											OFFSET	-3.3855	0.0000	0.0000
											CHANNELS 3 Zrotation Xrotation Yrotation
											End Site
											{
												OFFSET -2.6000 0.0000 0.0000
											}
										}
									}
								}
								JOINT RightHandMiddle1
								{
									OFFSET	-10.7596	0.4896	0.4278
									CHANNELS 3 Zrotation Xrotation Yrotation
									JOINT RightHandMiddle2
									{
										OFFSET	-5.6168	0.0000	0.0000
										CHANNELS 3 Zrotation Xrotation Yrotation
										JOINT RightHandMiddle3
										{
											OFFSET	-3.7364	0.0000	0.0000
											CHANNELS 3 Zrotation Xrotation Yrotation
											End Site
											{
												OFFSET -2.3000 0.0000 0.0000
											}
										}
									}
								}
								JOINT RightHandRing1
								{
									OFFSET	-10.4702	0.3879	-1.9363
									CHANNELS 3 Zrotation Xrotation Yrotation
									JOINT RightHandRing2
									{
										OFFSET	-5.4013	0.0000	0.0000
										CHANNELS 3 Zrotation Xrotation Yrotation
										JOINT RightHandRing3
										{
											OFFSET	-3.3916	0.0000	0.0000
											CHANNELS 3 Zrotation Xrotation Yrotation
											End Site
											{
												OFFSET -2.2000 0.0000 0.0000
											}
										}
									}
								}
								JOINT RightHandPinky1
								{
									OFFSET	-9.9715	-0.1191	-3.9540
									CHANNELS 3 Zrotation Xrotation Yrotation
									JOINT RightHandPinky2
									{
										OFFSET	-3.6528	0.0000	0.0000
										CHANNELS 3 Zrotation Xrotation Yrotation
										JOINT RightHandPinky3
										{
											OFFSET	-2.7820	0.0000	0.0000
											CHANNELS 3 Zrotation Xrotation Yrotation
											End Site
											{
												OFFSET -2.9000 0.0000 0.0000
											}
										}
									}
								}
							}
						}
					}
				}
			}
		}
	}
	JOINT LeftUpLeg
	{
		OFFSET	9.6338	-3.2733	0.0000
		CHANNELS 3 Xrotation Yrotation Zrotation
		JOINT LeftLeg
		{
			OFFSET	0.0000	-41.7300	-1.7300
			CHANNELS 3 Xrotation Yrotation Zrotation
			JOINT LeftFoot
			{
				OFFSET	0.0126	-39.1900	-0.8477
				CHANNELS 3 Xrotation Yrotation Zrotation
				JOINT LeftToeBase
				{
					OFFSET	-0.1833	-12.1931	8.2823
					CHANNELS 3 Xrotation Yrotation Zrotation
					End Site
					{
						OFFSET 0.0000 0.0000 10.1681
					}
				}
			}
		}
	}
	JOINT RightUpLeg
	{
		OFFSET	-9.6338	-3.2733	0.0000
		CHANNELS 3 Xrotation Yrotation Zrotation
		JOINT RightLeg
		{
			OFFSET	0.0000	-41.7300	-1.7300
			CHANNELS 3 Xrotation Yrotation Zrotation
			JOINT RightFoot
			{
				OFFSET	0.0126	-39.1900	-0.8477
				CHANNELS 3 Xrotation Yrotation Zrotation
				JOINT RightToeBase
				{
					OFFSET	-0.1833	-12.1931	8.2823
					CHANNELS 3 Xrotation Yrotation Zrotation
					End Site
					{
						OFFSET 0.0032 0.0000 10.1681
					}
				}
			}
		}
	}
}
MOTION
Frames: 9
Frame Time: 0.0333333
1.6991 88.8490 0.5409 -28.5160 0.8618 -2.1528 10.0637 5.8933 -0.8737 8.4414 -1.6331 0.7159 8.4418 -1.6580 0.6569 0.0290 2.1704 -3.1318 -0.0000 0.0000 -0.0000 -0.4652 8.2983 -9.5404 -6.5224 3.9762 -10.0164 -56.1505 -26.5175 -48.2735 0.0000 -0.0000 -120.4075 2.2179 7.0996 20.5216 -9.1948 9.9447 21.3315 -7.1120 -1.1907 3.7989 6.5826 -0.7622 54.0306 -80.8752 1.4160 0.8679 -93.3070 -1.0738 1.0136 -53.0349 -0.4048 0.8112 -80.1188 1.4250 0.6737 -93.3061 -1.0738 1.0136 -53.8380 -0.4162 0.8197 -79.5215 1.4319 0.8027 -93.9411 -1.0850 1.0129 -54.2298 -0.4218 0.8237 -82.9187 1.3897 2.6944 -93.2884 3.0069 1.2446 -51.5857 -0.3844 0.7955 0.5597 1.0777 14.5069 50.9543 -2.2210 59.0301 -0.0000 0.0000 111.8530 -16.4616 0.7362 -3.7956 15.9929 0.1670 -29.8550 -0.1393 0.9071 3.8738 -12.8249 34.3124 -46.0420 87.2803 -0.0059 -2.2286 89.8835 -2.2803 -2.2849 55.2073 -0.9811 -1.8763 88.0370 -0.0355 -2.3083 89.8839 -2.2803 -2.2850 54.4520 -0.3110 -1.8582 85.9224 0.0463 -2.3212 91.4197 -2.3416 -2.2843 56.1092 -0.6704 -1.8962 87.2803 -0.0059 -2.2286 89.8835 -2.2803 -2.2849 55.2073 -0.9811 -1.8763 -32.8385 13.4493 18.5471 60.4531 -8.4080 -0.1081 -13.0195 -3.6279 -8.7273 -12.7221 -0.0021 0.5474 -30.8304 -3.7971 -6.9858 47.9310 -3.1784 2.5742 -17.2019 -0.5988 4.7958 -0.0140 0.0000 0.0000 
1.2063 87.8515 0.7975 -26.3894 -2.2213 -1.7260 10.4277 5.7800 0.1456 8.7751 -1.7949 1.0798 8.7804 -1.8139 1.0096 0.1686 2.1499 -3.8655 -0.0000 0.0000 -0.0000 0.8938 7.2727 -9.9618 -6.8846 4.2631 -10.6659 -58.3990 -25.6114 -48.3961 -0.0000 -0.0000 -122.9583 3.0864 5.7880 20.1756 -9.1948 9.9447 21.3315 -7.1120 -1.1907 3.7989 6.5826 -0.7621 54.0307 -80.8752 1.4160 0.8679 -93.3070 -1.0738 1.0136 -53.0349 -0.4048 0.8112 -80.1188 1.4250 0.6737 -93.3061 -1.0738 1.0136 -53.8380 -0.4162 0.8196 -79.5215 1.4319 0.8027 -93.9412 -1.0850 1.0129 -54.2298 -0.4218 0.8237 -82.9187 1.3897 2.6944 -93.2884 3.0069 1.2445 -51.5858 -0.3844 0.7955 0.7533 1.1359 14.7432 48.2497 0.4593 53.9461 -0.0000 0.0000 111.8918 -14.5980 2.4672 -2.7929 15.9929 0.1670 -29.8550 -0.1393 0.9070 3.8738 -12.8249 34.3125 -46.0420 87.2803 -0.0059 -2.2286 89.8835 -2.2803 -2.2850 55.2073 -0.9811 -1.8763 88.0370 -0.0355 -2.3084 89.8839 -2.2803 -2.2850 54.4520 -0.3110 -1.8582 85.9224 0.0463 -2.3212 91.4197 -2.3416 -2.2843 56.1092 -0.6705 -1.8962 87.2803 -0.0059 -2.2286 89.8835 -2.2803 -2.2850 55.2073 -0.9811 -1.8763 -35.4792 10.1477 18.5128 72.9750 -6.6637 0.9242 -3.2551 -9.2644 -10.2055 -13.7685 0.0000 -0.0000 -25.7301 -3.7296 -7.2178 51.4978 -4.7474 -1.3127 -22.5449 -1.7170 9.4164 -0.5304 -0.0000 -0.0000 
1.0884 87.0866 1.3934 -22.6163 -3.4036 -1.7561 10.1148 6.0072 1.4938 8.6568 -1.6097 1.7715 8.6662 -1.6295 1.7064 0.3596 2.1178 -4.7191 -0.0000 0.0000 -0.0000 2.5662 5.9671 -10.3973 -7.2452 4.4705 -11.0769 -60.1955 -23.2424 -48.1065 -0.0000 -0.0000 -125.1805 3.8753 4.5587 20.2516 -9.1948 9.9447 21.3315 -7.1120 -1.1907 3.7989 6.5826 -0.7621 54.0307 -80.8751 1.4160 0.8679 -93.3070 -1.0738 1.0136 -53.0349 -0.4047 0.8112 -80.1188 1.4250 0.6736 -93.3061 -1.0738 1.0136 -53.8380 -0.4162 0.8197 -79.5215 1.4319 0.8027 -93.9412 -1.0850 1.0129 -54.2298 -0.4218 0.8237 -82.9187 1.3897 2.6944 -93.2884 3.0069 1.2446 -51.5858 -0.3844 0.7955 2.7265 1.9082 15.0955 44.1984 2.3615 49.2200 0.0000 -0.0000 110.5220 -12.4253 2.8584 -2.4373 15.9929 0.1670 -29.8550 -0.1393 0.9071 3.8738 -12.8249 34.3124 -46.0420 87.2803 -0.0059 -2.2286 89.8835 -2.2803 -2.2850 55.2073 -0.9811 -1.8763 88.0370 -0.0356 -2.3083 89.8839 -2.2803 -2.2849 54.4520 -0.3110 -1.8582 85.9224 0.0463 -2.3212 91.4197 -2.3415 -2.2843 56.1092 -0.6705 -1.8962 87.2803 -0.0059 -2.2286 89.8835 -2.2803 -2.2850 55.2073 -0.9811 -1.8763 -39.6447 5.8185 17.0180 82.0502 -5.2371 1.7822 5.3658 -15.1968 -9.3707 -5.8038 -0.0000 -0.0000 -21.0093 -6.9075 -11.5738 52.6094 -2.6966 0.1603 -26.9584 -2.2170 10.5355 -0.8038 -0.0000 0.0000 
1.1628 87.5895 1.6228 -22.2905 -2.7068 -0.9259 9.2209 6.6642 2.2478 8.0686 -0.9741 2.4925 8.0779 -1.0030 2.4533 0.6208 2.1062 -5.3756 -0.0000 0.0000 -0.0000 4.1028 5.0140 -10.7852 -7.6063 4.3373 -10.4057 -60.3371 -19.4349 -46.7758 0.0000 -0.0000 -126.0140 3.8153 3.8899 21.4736 -9.1948 9.9447 21.3315 -7.1120 -1.1907 3.7989 6.5827 -0.7621 54.0307 -80.8752 1.4160 0.8679 -93.3070 -1.0738 1.0136 -53.0349 -0.4047 0.8112 -80.1188 1.4250 0.6737 -93.3061 -1.0738 1.0136 -53.8380 -0.4162 0.8197 -79.5215 1.4319 0.8027 -93.9412 -1.0850 1.0129 -54.2298 -0.4218 0.8237 -82.9187 1.3897 2.6944 -93.2884 3.0069 1.2446 -51.5858 -0.3844 0.7955 6.4890 3.5086 15.7921 39.4478 2.5856 46.2633 -0.0000 0.0000 108.0614 -10.9723 1.3792 -3.2610 15.9929 0.1670 -29.8550 -0.1393 0.9071 3.8738 -12.8249 34.3124 -46.0420 87.2803 -0.0059 -2.2286 89.8835 -2.2803 -2.2850 55.2073 -0.9811 -1.8763 88.0370 -0.0355 -2.3083 89.8839 -2.2803 -2.2849 54.4520 -0.3110 -1.8582 85.9224 0.0463 -2.3212 91.4197 -2.3416 -2.2843 56.1092 -0.6705 -1.8962 87.2803 -0.0059 -2.2286 89.8835 -2.2803 -2.2850 55.2073 -0.9811 -1.8763 -42.7940 5.5048 17.1220 83.1072 -5.2967 1.1816 4.7494 -16.6602 -10.6128 -0.8559 0.0000 -0.0000 -17.3671 -9.2748 -15.1757 48.7894 0.2242 0.7295 -27.8402 -2.5044 11.2580 -0.7531 0.0000 -0.0000 
1.3828 88.6229 1.5833 -24.8098 -1.7802 -0.1401 8.5293 7.6733 1.9713 7.4922 0.0486 2.6651 7.4953 0.0123 2.6630 0.8875 2.1233 -5.4903 -0.0000 0.0000 -0.0000 4.6374 4.9371 -10.5374 -7.6519 3.8036 -8.7010 -58.7149 -16.5322 -45.1975 0.0000 0.0000 -124.8113 2.7397 4.2997 22.7642 -9.1948 9.9447 21.3315 -7.1120 -1.1907 3.7989 6.5826 -0.7622 54.0306 -80.8751 1.4160 0.8679 -93.3070 -1.0738 1.0136 -53.0349 -0.4047 0.8112 -80.1188 1.4250 0.6737 -93.3061 -1.0738 1.0136 -53.8380 -0.4162 0.8197 -79.5215 1.4319 0.8027 -93.9411 -1.0850 1.0129 -54.2298 -0.4218 0.8237 -82.9187 1.3897 2.6944 -93.2884 3.0069 1.2446 -51.5857 -0.3844 0.7955 10.1285 5.4564 17.3429 36.2687 0.7827 45.9122 0.0000 0.0000 106.4031 -10.9725 -1.5047 -5.2793 15.9929 0.1670 -29.8550 -0.1393 0.9070 3.8738 -12.8249 34.3124 -46.0420 87.2803 -0.0059 -2.2286 89.8835 -2.2803 -2.2850 55.2073 -0.9811 -1.8763 88.0371 -0.0356 -2.3083 89.8839 -2.2803 -2.2850 54.4520 -0.3110 -1.8582 85.9224 0.0463 -2.3212 91.4197 -2.3416 -2.2843 56.1092 -0.6705 -1.8962 87.2803 -0.0059 -2.2286 89.8835 -2.2803 -2.2850 55.2073 -0.9811 -1.8763 -44.7367 8.3200 19.6229 77.1255 -6.0176 -0.3821 1.6959 -12.4335 -10.2005 -0.7231 0.0000 -0.0000 -13.6898 -10.4273 -17.2192 42.0223 3.2540 0.1884 -26.3896 -2.6832 12.3602 -0.8460 0.0000 -0.0000 
1.6940 89.2876 1.3638 -26.0338 -0.5217 0.7121 7.8116 8.4466 1.2291 6.9153 0.8914 2.4654 6.9126 0.8605 2.4887 1.0151 2.0741 -5.2685 -0.0000 0.0000 -0.0000 4.0875 4.9055 -9.4788 -7.4657 3.3805 -7.4970 -56.6779 -15.6224 -44.2028 -0.0000 -0.0000 -122.3344 1.6521 5.6445 22.4260 -9.1948 9.9447 21.3315 -7.1120 -1.1907 3.7989 6.5827 -0.7621 54.0307 -80.8751 1.4160 0.8679 -93.3071 -1.0738 1.0136 -53.0349 -0.4047 0.8112 -80.1188 1.4250 0.6737 -93.3061 -1.0738 1.0136 -53.8380 -0.4162 0.8197 -79.5215 1.4319 0.8027 -93.9412 -1.0850 1.0129 -54.2298 -0.4218 0.8237 -82.9187 1.3897 2.6944 -93.2884 3.0069 1.2446 -51.5857 -0.3844 0.7955 12.2534 6.8424 18.7450 35.3386 -1.9047 47.5307 0.0000 0.0000 106.0680 -11.3588 -4.2725 -7.6401 15.9929 0.1670 -29.8550 -0.1393 0.9071 3.8738 -12.8249 34.3124 -46.0420 87.2803 -0.0059 -2.2286 89.8835 -2.2803 -2.2849 55.2073 -0.9811 -1.8763 88.0370 -0.0356 -2.3084 89.8839 -2.2803 -2.2850 54.4520 -0.3110 -1.8582 85.9224 0.0463 -2.3212 91.4197 -2.3416 -2.2843 56.1092 -0.6704 -1.8962 87.2803 -0.0059 -2.2286 89.8835 -2.2803 -2.2849 55.2073 -0.9811 -1.8763 -45.8707 10.6743 20.2739 65.5886 -7.0622 -1.4818 -0.8168 -7.5588 -7.8031 -0.6055 0.0000 0.0000 -9.9870 -11.5745 -19.0350 34.8119 4.1794 -0.3538 -24.5695 -2.8810 14.5224 -1.1800 -0.0000 -0.0000 
2.0522 89.2937 1.2638 -25.2742 1.1964 1.8145 6.8492 8.8278 0.4378 6.2606 1.4180 2.0824 6.2542 1.4077 2.1088 1.0300 1.9516 -5.0096 -0.0000 0.0000 -0.0000 3.0096 4.4490 -7.8597 -7.1604 3.3289 -7.5441 -55.2108 -16.8098 -44.1234 -0.0000 -0.0000 -120.1175 1.0424 7.5429 20.7195 -9.1948 9.9447 21.3315 -7.1120 -1.1907 3.7989 6.5827 -0.7621 54.0306 -80.8752 1.4160 0.8679 -93.3070 -1.0738 1.0136 -53.0349 -0.4048 0.8112 -80.1188 1.4250 0.6737 -93.3061 -1.0738 1.0136 -53.8380 -0.4162 0.8197 -79.5215 1.4319 0.8027 -93.9412 -1.0850 1.0129 -54.2298 -0.4218 0.8237 -82.9187 1.3897 2.6944 -93.2884 3.0069 1.2446 -51.5858 -0.3844 0.7955 12.5371 7.3380 19.6391 36.3138 -4.7655 50.4518 0.0000 0.0000 106.6927 -11.7030 -6.1943 -9.5436 15.9929 0.1670 -29.8550 -0.1393 0.9071 3.8738 -12.8249 34.3124 -46.0420 87.2803 -0.0059 -2.2286 89.8835 -2.2803 -2.2850 55.2073 -0.9811 -1.8763 88.0371 -0.0355 -2.3084 89.8839 -2.2803 -2.2850 54.4520 -0.3110 -1.8582 85.9224 0.0463 -2.3212 91.4197 -2.3416 -2.2843 56.1092 -0.6705 -1.8962 87.2803 -0.0059 -2.2286 89.8835 -2.2803 -2.2850 55.2073 -0.9811 -1.8763 -45.3703 11.6460 17.8942 49.4413 -8.3197 -0.9835 -3.5780 -4.1085 -5.5074 -0.7913 0.0000 -0.0000 -6.0408 -13.3886 -21.0382 27.5342 3.1310 -0.5405 -22.9437 -3.3607 17.3694 -2.4212 -0.0000 0.0000 
2.4328 88.1842 1.4507 -24.2899 2.5870 2.4476 5.5634 9.0670 -0.0128 5.4508 1.8115 1.7585 5.4406 1.8277 1.7726 1.0391 1.8227 -4.9013 -0.0000 0.0000 -0.0000 2.2568 3.6939 -6.2996 -6.8138 3.5514 -8.4850 -54.7348 -18.9837 -44.6417 0.0000 -0.0000 -119.5564 1.0298 9.3127 19.0162 -9.1948 9.9447 21.3315 -7.1120 -1.1907 3.7989 6.5827 -0.7621 54.0307 -80.8751 1.4160 0.8679 -93.3070 -1.0738 1.0136 -53.0349 -0.4048 0.8112 -80.1188 1.4250 0.6737 -93.3061 -1.0738 1.0136 -53.8380 -0.4162 0.8197 -79.5215 1.4319 0.8027 -93.9411 -1.0850 1.0129 -54.2298 -0.4218 0.8237 -82.9187 1.3897 2.6944 -93.2884 3.0069 1.2446 -51.5857 -0.3844 0.7955 11.9304 7.2982 20.1608 37.9855 -7.6690 54.4187 0.0000 0.0001 107.2826 -12.1181 -7.4232 -10.6545 15.9928 0.1670 -29.8550 -0.1393 0.9071 3.8738 -12.8249 34.3124 -46.0420 87.2803 -0.0059 -2.2286 89.8835 -2.2803 -2.2850 55.2073 -0.9811 -1.8763 88.0370 -0.0356 -2.3083 89.8839 -2.2803 -2.2850 54.4520 -0.3110 -1.8582 85.9224 0.0463 -2.3212 91.4197 -2.3416 -2.2843 56.1092 -0.6705 -1.8962 87.2803 -0.0059 -2.2286 89.8835 -2.2803 -2.2850 55.2073 -0.9811 -1.8763 -43.5856 11.5208 15.0773 31.2495 -9.2975 0.7376 -5.0107 -2.6413 -3.0544 -0.8275 -0.0000 0.0000 -3.8517 -15.1622 -23.4048 24.7546 2.1593 -0.4180 -22.2382 -3.5819 19.4840 -3.8149 0.0000 0.0000 
2.7551 85.8330 2.1969 -24.5233 3.2241 2.3741 4.4557 9.4028 -0.1205 4.6929 2.2884 1.6116 4.6770 2.3221 1.6161 1.0665 1.7618 -4.8352 -0.0000 0.0000 -0.0000 2.3501 3.1685 -5.2966 -6.3787 3.7267 -9.3387 -55.2617 -20.8769 -45.4459 -0.0000 -0.0000 -120.9730 1.3420 10.2299 18.2227 -9.1948 9.9447 21.3315 -7.1120 -1.1907 3.7989 6.5827 -0.7621 54.0307 -80.8751 1.4160 0.8679 -93.3070 -1.0738 1.0136 -53.0349 -0.4048 0.8112 -80.1188 1.4250 0.6737 -93.3061 -1.0738 1.0136 -53.8380 -0.4162 0.8197 -79.5215 1.4319 0.8027 -93.9412 -1.0850 1.0129 -54.2298 -0.4218 0.8237 -82.9187 1.3897 2.6944 -93.2884 3.0069 1.2446 -51.5858 -0.3844 0.7955 11.4413 7.2375 20.6598 39.5416 -10.5907 59.1385 0.0000 0.0000 107.4402 -12.8691 -8.2348 -11.0133 15.9928 0.1670 -29.8550 -0.1393 0.9071 3.8738 -12.8249 34.3124 -46.0420 87.2803 -0.0059 -2.2286 89.8835 -2.2803 -2.2849 55.2074 -0.9811 -1.8763 88.0370 -0.0356 -2.3084 89.8839 -2.2803 -2.2850 54.4520 -0.3110 -1.8582 85.9224 0.0463 -2.3212 91.4197 -2.3416 -2.2843 56.1092 -0.6705 -1.8962 87.2803 -0.0059 -2.2286 89.8835 -2.2803 -2.2849 55.2074 -0.9811 -1.8763 -43.7613 11.0025 14.6893 19.8994 -8.6622 2.0466 -6.8454 -2.2413 -0.6776 -1.1709 -0.0000 -0.0000 -2.1215 -16.6654 -25.5889 24.7140 2.4483 -1.2172 -23.7298 -3.9834 22.3806 -4.6597 0.0000 -0.0000 
